<?xml version="1.0" encoding="UTF-8" standalone="no"?>
<!-- Created with Inkscape (http://www.inkscape.org/) -->

<svg
   version="1.1"
   id="svg1"
   width="2666.6667"
   height="2666.6667"
   viewBox="0 0 2666.6667 2666.6667"
   sodipodi:docname="tw 2.svg"
   inkscape:version="1.3 (0e150ed, 2023-07-21)"
   xmlns:inkscape="http://www.inkscape.org/namespaces/inkscape"
   xmlns:sodipodi="http://sodipodi.sourceforge.net/DTD/sodipodi-0.dtd"
   xmlns="http://www.w3.org/2000/svg"
   xmlns:svg="http://www.w3.org/2000/svg">
  <defs
     id="defs1" />
  <sodipodi:namedview
     id="namedview1"
     pagecolor="#ffffff"
     bordercolor="#000000"
     borderopacity="0.25"
     inkscape:showpageshadow="2"
     inkscape:pageopacity="0.0"
     inkscape:pagecheckerboard="0"
     inkscape:deskcolor="#d1d1d1"
     showgrid="true"
     inkscape:zoom="0.16401919"
     inkscape:cx="506.03835"
     inkscape:cy="1115.7231"
     inkscape:window-width="1632"
     inkscape:window-height="753"
     inkscape:window-x="1643"
     inkscape:window-y="169"
     inkscape:window-maximized="0"
     inkscape:current-layer="g1">
    <inkscape:grid
       id="grid1"
       units="px"
       originx="0"
       originy="0"
       spacingx="0.99999998"
       spacingy="0.99999998"
       empcolor="#0099e5"
       empopacity="0.30196078"
       color="#0099e5"
       opacity="0.14901961"
       empspacing="5"
       dotted="false"
       gridanglex="30"
       gridanglez="30"
       visible="true" />
  </sodipodi:namedview>
  <g
     inkscape:groupmode="layer"
     inkscape:label="Image"
     id="g1">
    <path
       style="fill:none;stroke:#000000;stroke-width:20;stroke-dasharray:none"
       d="m 1933.3334,2435.1576 c -12.246,-0.9099 -37.2793,-4.4813 -50.3005,-7.1761 -22.335,-4.6224 -24.9625,-7.3189 -26.2486,-26.9391 -2.2029,-33.6047 -8.484,-55.7562 -35.8342,-126.3757 -22.3755,-57.7745 -32.0196,-85.1096 -40.9259,-116 -23.5143,-81.5555 -32.2565,-145.4417 -31.969,-233.6218 l 0.1431,-43.888 -5.5567,-8.5287 c -16.069,-24.6637 -40.6975,-40.3062 -74.2,-47.1273 -7.2095,-1.4679 -14.9082,-3.0453 -17.1082,-3.5054 -2.2,-0.4601 -34.9,-1.3422 -72.6667,-1.9603 -38.407,-0.6285 -73.9547,-1.8248 -80.6667,-2.7146 -25.2454,-3.3469 -51.9628,-12.527 -59.0809,-20.3003 -1.9772,-2.1591 -4.9392,-9.8291 -8.268,-21.4093 -27.2525,-94.8084 -66.5259,-128.8804 -126.2278,-109.51 -34.6184,11.232 -74.9522,38.7468 -146.4233,99.8865 -11.7333,10.0373 -22.8333,18.8473 -24.6666,19.5778 -5.2263,2.0825 -13.1698,0.4237 -17.4058,-3.6347 -2.4378,-2.3355 -4.7851,-6.9784 -6.6267,-13.1069 -6.791,-22.5999 -22.0956,-40.5721 -49.318,-57.9142 -38.131,-24.2915 -45.0097,-28.9105 -54.0298,-36.2812 -20.2436,-16.5416 -33.68304,-37.9257 -41.27889,-65.6808 -2.75012,-10.0489 -5.71054,-11.643 -15.65642,-8.4309 -25.6152,8.2728 -55.01343,4.7275 -95.01776,-11.4586 -7.33334,-2.9672 -31.33334,-14.0981 -53.33334,-24.7355 -48.59256,-23.4952 -67.47148,-31.8058 -86.66667,-38.1511 -47.57814,-15.7277 -81.3398,-14.7493 -111.61125,3.2347 -11.29439,6.7099 -28.07789,22.3959 -37.45426,35.0053 -3.72945,5.0153 -8.45034,9.9821 -10.49085,11.0373 -4.86977,2.5183 -29.0993,6.5728 -52.44364,8.7759 -24.41128,2.3038 -115.74732,2.3154 -142.00001,0.018 -94.50583,-8.2701 -153.34864,-25.4685 -180.82764,-52.8517 -23.77264,-23.6898 -23.05021,-51.6135 2.26092,-87.3909 7.87386,-11.1297 32.14554,-35.9578 44.76907,-45.7954 4.51129,-3.5157 8.46964,-7.4143 8.79634,-8.6636 0.3267,-1.2492 0.0301,-9.757 -0.65906,-18.9062 -1.71059,-22.7087 -0.30072,-93.8407 2.27211,-114.6348 9.92038,-80.1783 31.07747,-139.1763 67.02038,-186.8909 18.2829,-24.2707 43.366,-46.9219 68.8604,-62.1841 l 9.15918,-5.4831 21.50749,0.8047 c 17.45916,0.6532 23.64073,0.3724 32.84081,-1.4919 20.26519,-4.10642 34.27364,-14.24973 43.04535,-31.16845 6.40672,-12.35718 9.24714,-21.76037 16.79565,-55.60187 9.8089,-43.97533 15.85397,-59.98701 30.19296,-79.97257 4.1097,-5.72808 9.83665,-15.11736 12.72655,-20.86508 2.8899,-5.74772 11.01353,-20.50707 18.05252,-32.79855 69.06255,-120.59705 159.90749,-206.091 285.85365,-269.01618 9.9,-4.94624 18.44082,-9.66939 18.97959,-10.4959 2.25718,-3.46268 0.50171,-6.78393 -8.89868,-16.83579 -41.31654,-44.17988 -59.32168,-85.09785 -52.21704,-118.66697 8.33987,-39.40553 45.6573,-70.03746 123.46947,-101.34962 30.56789,-12.30073 90.18337,-33.31705 94.50807,-33.31705 2.4946,0 10.338,4.27468 23.2957,12.69625 36.7147,23.86199 68.2591,40.17827 108.0338,55.88029 40.6425,16.04459 74.1388,25.71972 157.4958,45.49139 83.7641,19.86825 121.828,30.76646 135.1272,38.68872 9.0426,5.38666 29.4124,13.8443 40.8728,16.9706 25.5542,6.97098 57.5193,8.91287 103.4871,6.28688 58.7742,-3.35756 91.0251,-1.69344 118.2609,6.10216 16.4289,4.70241 39.2713,16.23988 53.806,27.17697 6.8453,5.15094 13.15,9.36716 14.0105,9.36938 1.9966,0.005 12.7239,-8.02338 20.248,-15.15407 9.8933,-9.37602 26.3182,-29.53727 50.6527,-62.17523 53.0745,-71.18455 72.5928,-91.71092 99.5348,-104.67519 31.4145,-15.1164 59.9372,-4.80151 87.3614,31.5931 14.0342,18.62483 13.8429,17.98579 14.0968,47.08209 0.3175,36.38891 5.2578,65.28578 16.5264,96.66667 13.3189,37.0905 28.1057,64.57435 67.7903,126 24.3052,37.62076 32.6753,51.25179 42.5582,69.30717 14.6949,26.8466 25.8117,55.05692 30.8375,78.25361 4.4866,20.70816 1.922,25.06113 -19.0723,32.37171 -28.2551,9.83895 -34.2324,20.08557 -23.852,40.88838 4.0274,8.07106 8.0531,12.98826 22.3334,27.27929 19.3813,19.39592 35.3725,32.54188 83.4203,68.57767 66.0764,49.55721 92.0626,72.32269 104.4587,91.51248 4.7723,7.38762 7.7284,10.41367 13.18,13.49204 22.6728,12.80247 43.9191,38.73707 63.6141,77.65097 20.2404,39.9919 33.139,81.6047 39.4689,127.3334 3.3946,24.5233 2.1862,63.3434 -2.5316,81.3333 -7.1601,27.3024 -20.7869,46.1487 -39.94,55.2383 -4.9958,2.3709 -9.4386,5.2369 -9.8731,6.369 -0.4344,1.1321 2.2869,14.4335 6.0474,29.5588 20.0713,80.731 27.1143,134.6762 30.9208,236.8339 2.8432,76.3051 5.5576,114.6651 11.3347,160.1846 5.2408,41.2933 9.8566,66.9135 14.6268,81.1866 5.8091,17.3814 7.5891,27.6258 7.5333,43.3545 -0.1108,31.1793 -11.0966,55.1452 -36.3423,79.2813 -12.8491,12.2844 -23.2857,19.9536 -41.1644,30.2492 -33.1049,19.0637 -67.1266,32.5349 -147.3333,58.3378 -57.7051,18.564 -86.1314,30.1854 -87.9649,35.9622 -0.4581,1.4431 0.6508,9.7084 2.4641,18.3672 12.7955,61.0999 12.159,118.4377 -1.8376,165.5465 -25.5555,86.0125 -98.368,143.6347 -197.3283,156.1612 -12.5045,1.5828 -49.8295,2.7146 -61.3333,1.8598 z"
       id="path1" />
    <rect
       style="fill:none;stroke:#000000;stroke-width:20;stroke-linecap:round;stroke-dasharray:none"
       id="rect2"
       width="1436.281"
       height="1272.5623"
       x="-1225.7543"
       y="683.8703"
       transform="rotate(-46.324175)" />
    <rect
       style="fill:none;stroke:#000000;stroke-width:20;stroke-linecap:round;stroke-dasharray:none"
       id="rect2-1"
       width="1436.281"
       height="1272.5623"
       x="210.52673"
       y="683.87024"
       transform="rotate(-46.324175)" />
    <rect
       style="fill:none;stroke:#000000;stroke-width:20;stroke-linecap:round;stroke-dasharray:none"
       id="rect2-8"
       width="1436.281"
       height="1272.5623"
       x="-1225.7543"
       y="1956.4326"
       transform="rotate(-46.324175)" />
    <rect
       style="fill:none;stroke:#000000;stroke-width:20;stroke-linecap:round;stroke-dasharray:none"
       id="rect2-1-4"
       width="1436.281"
       height="1272.5623"
       x="210.52673"
       y="1956.4326"
       transform="rotate(-46.324175)" />
    <path
       style="fill:none;stroke:#000000;stroke-width:20;stroke-dasharray:none"
       d="m 1933.3334,2435.1576 c -12.246,-0.9099 -37.2793,-4.4813 -50.3005,-7.1761 -22.335,-4.6224 -24.9625,-7.3189 -26.2486,-26.9391 -2.2029,-33.6047 -8.484,-55.7562 -35.8342,-126.3757 -22.3755,-57.7745 -32.0196,-85.1096 -40.9259,-116 -23.5143,-81.5555 -32.2565,-145.4417 -31.969,-233.6218 l 0.1431,-43.888 -5.5567,-8.5287 c -16.069,-24.6637 -40.6975,-40.3062 -74.2,-47.1273 -7.2095,-1.4679 -14.9082,-3.0453 -17.1082,-3.5054 -2.2,-0.4601 -34.9,-1.3422 -72.6667,-1.9603 -38.407,-0.6285 -73.9547,-1.8248 -80.6667,-2.7146 -25.2454,-3.3469 -51.9628,-12.527 -59.0809,-20.3003 -1.9772,-2.1591 -4.9392,-9.8291 -8.268,-21.4093 -27.2525,-94.8084 -66.5259,-128.8804 -126.2278,-109.51 -34.6184,11.232 -74.9522,38.7468 -146.4233,99.8865 -11.7333,10.0373 -22.8333,18.8473 -24.6666,19.5778 -5.2263,2.0825 -13.1698,0.4237 -17.4058,-3.6347 -2.4378,-2.3355 -4.7851,-6.9784 -6.6267,-13.1069 -6.791,-22.5999 -22.0956,-40.5721 -49.318,-57.9142 -38.131,-24.2915 -45.0097,-28.9105 -54.0298,-36.2812 -20.2436,-16.5416 -33.68304,-37.9257 -41.27889,-65.6808 -2.75012,-10.0489 -5.71054,-11.643 -15.65642,-8.4309 -25.6152,8.2728 -55.01343,4.7275 -95.01776,-11.4586 -7.33334,-2.9672 -31.33334,-14.0981 -53.33334,-24.7355 -48.59256,-23.4952 -67.47148,-31.8058 -86.66667,-38.1511 -47.57814,-15.7277 -81.3398,-14.7493 -111.61125,3.2347 -11.29439,6.7099 -28.07789,22.3959 -37.45426,35.0053 -3.72945,5.0153 -8.45034,9.9821 -10.49085,11.0373 -4.86977,2.5183 -29.0993,6.5728 -52.44364,8.7759 -24.41128,2.3038 -115.74732,2.3154 -142.00001,0.018 -94.50583,-8.2701 -153.34864,-25.4685 -180.82764,-52.8517 -23.77264,-23.6898 -23.05021,-51.6135 2.26092,-87.3909 7.87386,-11.1297 32.14554,-35.9578 44.76907,-45.7954 4.51129,-3.5157 8.46964,-7.4143 8.79634,-8.6636 0.3267,-1.2492 0.0301,-9.757 -0.65906,-18.9062 -1.71059,-22.7087 -0.30072,-93.8407 2.27211,-114.6348 9.92038,-80.1783 31.07747,-139.1763 67.02038,-186.8909 18.2829,-24.2707 43.366,-46.9219 68.8604,-62.1841 l 9.15918,-5.4831 21.50749,0.8047 c 17.45916,0.6532 23.64073,0.3724 32.84081,-1.4919 20.26519,-4.10642 34.27364,-14.24973 43.04535,-31.16845 6.40672,-12.35718 9.24714,-21.76037 16.79565,-55.60187 9.8089,-43.97533 15.85397,-59.98701 30.19296,-79.97257 4.1097,-5.72808 9.83665,-15.11736 12.72655,-20.86508 2.8899,-5.74772 11.01353,-20.50707 18.05252,-32.79855 69.06255,-120.59705 159.90749,-206.091 285.85365,-269.01618 9.9,-4.94624 18.44082,-9.66939 18.97959,-10.4959 2.25718,-3.46268 0.50171,-6.78393 -8.89868,-16.83579 -41.31654,-44.17988 -59.32168,-85.09785 -52.21704,-118.66697 8.33987,-39.40553 45.6573,-70.03746 123.46947,-101.34962 30.56789,-12.30073 90.18337,-33.31705 94.50807,-33.31705 2.4946,0 10.338,4.27468 23.2957,12.69625 36.7147,23.86199 68.2591,40.17827 108.0338,55.88029 40.6425,16.04459 74.1388,25.71972 157.4958,45.49139 83.7641,19.86825 121.828,30.76646 135.1272,38.68872 9.0426,5.38666 29.4124,13.8443 40.8728,16.9706 25.5542,6.97098 57.5193,8.91287 103.4871,6.28688 58.7742,-3.35756 91.0251,-1.69344 118.2609,6.10216 16.4289,4.70241 39.2713,16.23988 53.806,27.17697 6.8453,5.15094 13.15,9.36716 14.0105,9.36938 1.9966,0.005 12.7239,-8.02338 20.248,-15.15407 9.8933,-9.37602 26.3182,-29.53727 50.6527,-62.17523 53.0745,-71.18455 72.5928,-91.71092 99.5348,-104.67519 31.4145,-15.1164 59.9372,-4.80151 87.3614,31.5931 14.0342,18.62483 13.8429,17.98579 14.0968,47.08209 0.3175,36.38891 5.2578,65.28578 16.5264,96.66667 13.3189,37.0905 28.1057,64.57435 67.7903,126 24.3052,37.62076 32.6753,51.25179 42.5582,69.30717 14.6949,26.8466 25.8117,55.05692 30.8375,78.25361 4.4866,20.70816 1.922,25.06113 -19.0723,32.37171 -28.2551,9.83895 -34.2324,20.08557 -23.852,40.88838 4.0274,8.07106 8.0531,12.98826 22.3334,27.27929 19.3813,19.39592 35.3725,32.54188 83.4203,68.57767 66.0764,49.55721 92.0626,72.32269 104.4587,91.51248 4.7723,7.38762 7.7284,10.41367 13.18,13.49204 22.6728,12.80247 43.9191,38.73707 63.6141,77.65097 20.2404,39.9919 33.139,81.6047 39.4689,127.3334 3.3946,24.5233 2.1862,63.3434 -2.5316,81.3333 -7.1601,27.3024 -20.7869,46.1487 -39.94,55.2383 -4.9958,2.3709 -9.4386,5.2369 -9.8731,6.369 -0.4344,1.1321 2.2869,14.4335 6.0474,29.5588 20.0713,80.731 27.1143,134.6762 30.9208,236.8339 2.8432,76.3051 5.5576,114.6651 11.3347,160.1846 5.2408,41.2933 9.8566,66.9135 14.6268,81.1866 5.8091,17.3814 7.5891,27.6258 7.5333,43.3545 -0.1108,31.1793 -11.0966,55.1452 -36.3423,79.2813 -12.8491,12.2844 -23.2857,19.9536 -41.1644,30.2492 -33.1049,19.0637 -67.1266,32.5349 -147.3333,58.3378 -57.7051,18.564 -86.1314,30.1854 -87.9649,35.9622 -0.4581,1.4431 0.6508,9.7084 2.4641,18.3672 12.7955,61.0999 12.159,118.4377 -1.8376,165.5465 -25.5555,86.0125 -98.368,143.6347 -197.3283,156.1612 -12.5045,1.5828 -49.8295,2.7146 -61.3333,1.8598 z"
       id="path2" />
  </g>
</svg>
