<?xml version="1.0" encoding="UTF-8" standalone="no"?>
<svg
   width="15.195"
   height="15.195"
   version="1.1"
   viewBox="0 0 4.02 4.02"
   id="svg12"
   sodipodi:docname="close-button.svg"
   inkscape:version="1.2.2 (b0a84865, 2022-12-01)"
   xmlns:inkscape="http://www.inkscape.org/namespaces/inkscape"
   xmlns:sodipodi="http://sodipodi.sourceforge.net/DTD/sodipodi-0.dtd"
   xmlns="http://www.w3.org/2000/svg"
   xmlns:svg="http://www.w3.org/2000/svg">
  <defs
     id="defs16" />
  <sodipodi:namedview
     id="namedview14"
     pagecolor="#ffffff"
     bordercolor="#000000"
     borderopacity="0.25"
     inkscape:showpageshadow="2"
     inkscape:pageopacity="0.0"
     inkscape:pagecheckerboard="0"
     inkscape:deskcolor="#d1d1d1"
     showgrid="false"
     inkscape:zoom="15.531425"
     inkscape:cx="7.5974998"
     inkscape:cy="7.5974998"
     inkscape:window-width="1309"
     inkscape:window-height="430"
     inkscape:window-x="0"
     inkscape:window-y="136"
     inkscape:window-maximized="0"
     inkscape:current-layer="svg12" />
  <path
     d="M 0,0 V 4.02 H 4.02 V 0 Z m 1.262,0.14 h 1.496 c 0.622,0 1.123,0.5 1.123,1.122 V 2.758 C 3.881,3.379 3.38,3.88 2.758,3.88 H 1.262 A 1.12,1.12 0 0 1 0.14,2.758 V 1.262 C 0.14,0.64 0.64,0.14 1.262,0.14 Z"
     fill="#ffffff"
     id="path2" />
  <g
     id="g499">
    <path
       style="color:#000000;fill:#4d4d4d;-inkscape-stroke:none"
       d="M 1.2617187,0 C 0.56499307,0 0,0.56499307 0,1.2617187 v 1.4960938 c 0,0.6967257 0.56499307,1.2617187 1.2617187,1.2617187 h 1.4960938 c 0.6967257,0 1.2617187,-0.564993 1.2617187,-1.2617187 V 1.2617187 C 4.0195312,0.56499307 3.4545382,0 2.7578125,0 Z m 0,0.27929688 h 1.4960938 c 0.5464491,0 0.9824219,0.43597282 0.9824219,0.98242182 v 1.4960938 c 0,0.5464491 -0.4359728,0.9824219 -0.9824219,0.9824219 H 1.2617187 c -0.546449,0 -0.98242182,-0.4359728 -0.98242182,-0.9824219 V 1.2617187 c 0,-0.546449 0.43597282,-0.98242182 0.98242182,-0.98242182 z"
       id="rect4" />
    <g
       aria-label="×"
       id="text8"
       style="font-size:6.264px;font-family:'Fira Sans';text-align:center;text-anchor:middle;fill:#4d4d4d;stroke-width:0.493">
      <path
         d="m 2.7868738,0.98565614 0.238032,0.23176796 -0.783,0.789264 0.783,0.801792 -0.238032,0.225504 L 2.0164018,2.2321921 1.2271379,3.0339841 0.99536986,2.8084801 1.7658419,2.0192161 0.99536986,1.2174241 1.2271379,0.98565614 1.9976098,1.7937121 Z"
         id="path487" />
    </g>
  </g>
</svg>
