<?xml version="1.0" encoding="UTF-8"?>
<!-- Created with Inkscape (http://www.inkscape.org/) -->
<svg width="8.6878mm" height="8.6878mm" version="1.1" viewBox="0 0 8.6878 8.6878" xmlns="http://www.w3.org/2000/svg">
 <g stroke-width=".75">
  <path d="m0-2e-3v8.6878h8.6878v-8.6878zm4.3439 0.37517a3.9688 3.9688 0 0 1 3.9688 3.9688 3.9688 3.9688 0 0 1-3.9688 3.9688 3.9688 3.9688 0 0 1-3.9688-3.9688 3.9688 3.9688 0 0 1 3.9688-3.9688z" fill="#fff"/>
  <circle cx="4.344" cy="4.341" r="3.9688" fill="none" stroke="#333"/>
  <g fill="#333" aria-label="?">
   <path d="m4.395 2.0428q0.4318 0 0.7366 0.14605 0.3048 0.1397 0.4572 0.381 0.1524 0.23495 0.1524 0.51435 0 0.26035-0.0889 0.4445t-0.2159 0.29845q-0.127 0.10795-0.33655 0.254-0.254 0.17145-0.381 0.3175-0.12065 0.1397-0.12065 0.3683v0.1905h-0.83185v-0.22225q0-0.2921 0.0889-0.4953 0.09525-0.2032 0.22225-0.32385 0.13335-0.12065 0.3302-0.254 0.2032-0.13335 0.2921-0.23495 0.09525-0.1016 0.09525-0.26035 0-0.19685-0.13335-0.29845-0.127-0.10795-0.3556-0.10795-0.4318 0-0.7747 0.40005l-0.5842-0.45085q0.2794-0.32385 0.635-0.4953 0.3556-0.17145 0.8128-0.17145zm-0.2032 3.5115q0.2286 0 0.38735 0.15875t0.15875 0.381-0.15875 0.38735q-0.15875 0.15875-0.38735 0.15875t-0.38735-0.15875q-0.1524-0.15875-0.1524-0.38735 0-0.22225 0.1524-0.381 0.15875-0.15875 0.38735-0.15875z"/>
  </g>
 </g>
</svg>
